<svg xmlns="http://www.w3.org/2000/svg" version="1.1" xmlns:xlink="http://www.w3.org/1999/xlink" width="288" height="288"><svg id="SvgjsSvg1003" data-name="Layer 2" xmlns="http://www.w3.org/2000/svg" viewBox="0 0 288 288">
  <defs>
    <style>
      .cls-1 {
        fill: #fff;
      }
    </style>
  </defs>
  <g id="SvgjsG1002" data-name="Layer 1">
    <g>
      <rect class="cls-1" width="288" height="288" rx="43.28" ry="43.28"></rect>
      <g>
        <path d="M180.23,78.34c1.02-.1,2.01-.4,3.03-.03l44.4,26.75.19,64.85-.9,2.61-114.6,37.33c-2.7.22-4.85-1.43-7.14-2.53-14.94-7.24-29.72-17.96-44.63-25.59l-.47-65.44,1.29-3.1,118.81-34.85ZM190.07,86.94l-9.06-4.18c-3.27,1.5-7.62,1.76-10.76,3.21-1.02.47-1.59-.43-1.24,1.83,6.39.26,13.56,3.32,19.85.98,1.21-.45,1.49.28,1.21-1.84ZM198.85,112.37c-3.07-7.93-2.06-11.77,5.25-16.23-5.84-6.05-9.69-2.61-16.23-2.21-3.17.2-7.38.27-10.5,0-5.67-.5-14.07-4.57-18.42-4.42-4.76.16-11.24,4.15-16.27,4.44-.48,2.1.38,1.42,1.15,1.95,11.05,7.69,24.37,13.77,35.51,21.56l19.52-5.1ZM119.86,100.98l37.73,23.31c2.03.97,15.79-3.37,15.79-4.45l-36.84-22.88c-4.16-1.12-12.17,3.37-16.68,4.02ZM202.63,102.98c-2.09,2.43.12,6.5,2.83,6.78,1.39.14,13.59-4,13.57-4.84-4.98-3.83-11.12-8.05-16.39-1.94ZM152.33,127.29l-39.16-24.33-19.27,5.87c-.84,1.07,1.29,3.82,1.44,5.75.52,6.63-4.47,7.99-8.82,11.4,0,.44,6.9,4.55,7.57,4.62,1.48.16,7.66-2.16,10.42-2.41,8.35-.76,16.24.13,24.32,1.99,2.07.48,4.85,2.27,6.37,2.3,4.08.07,12.57-4.67,17.13-5.19ZM223.42,109.74l-39.46,11.89c-3.24,1.81-1.3,8.56-1.79,11.81l40.38-12.71.86-10.99ZM68.96,116.75c7.94,2.93,9.83,9.06,18.36,3.02,4.99-3.53,4.21-9.38-1.15-9.15-1.96.08-13.03,3.83-15.46,4.84-.84.35-2.01.09-1.75,1.29ZM155.84,131.68c-1.42-1.4-33.09,10.39-37.95,11.64-7.97,2.05-7.3,1.75-14.42-1.83-11.41-5.73-23.77-15.38-35.05-20.24-1.28-.55-2.35-1.24-3.85-.97.4,3.22-1.17,8.19,1.26,10.58l45.73,25.37,43.76-13.91.52-10.63ZM177.79,183.03v-57.93l-1.82-.97-15.31,5.78-.42,58.81,17.55-5.7ZM223.42,125.55l-40.38,12.71-.86,10.99,39.86-12.37c2.73-1.98.88-8.14,1.39-11.33ZM126.88,134.33c-8.61-1.89-16.72-2.18-25.45-.88-.51,2.02.38,1.44,1.1,2.01,1.01.79,8.23,4.92,8.96,4.95,1.09.05,10.82-3.35,12.56-4.08,1.08-.46,2.59-.48,2.83-1.99ZM155.84,147.49l-45.16,14.04-46.11-25.45.18,10.35,46.9,26.28,44.1-13.9.09-11.32ZM223.42,142.22l-39.86,12.37c-2.43,1.76-1.45,7.64-.98,10.49l39.98-11.87.86-10.99ZM155.84,163.28l-45.11,14.03c-5.27-2.11-10.2-5.01-15.15-7.74-8.59-4.73-19.05-12.45-27.75-16.14-1.1-.46-2.01-.92-3.26-.69l.88,10.08,46.13,25.88,43.41-13.56.85-11.87ZM182.18,181.72l39.86-12.37c2.44-1.77,1.45-7.64.98-10.49l-2.25-.49-37.74,12.35-.85,11ZM155.84,179.96l-45,13.88-46.27-25.29.18,10.35,46.76,26.15,44.24-13.77.09-11.32Z"></path>
        <path class="cls-1" d="M152.33,127.29c-4.56.52-13.05,5.26-17.13,5.19-1.53-.03-4.3-1.82-6.37-2.3-8.07-1.85-15.96-2.75-24.32-1.99-2.76.25-8.94,2.57-10.42,2.41-.67-.07-7.57-4.18-7.57-4.62,4.35-3.42,9.34-4.77,8.82-11.4-.15-1.93-2.28-4.68-1.44-5.75l19.27-5.87,39.16,24.33Z"></path>
        <polygon class="cls-1" points="177.79 183.03 160.23 188.73 160.66 129.92 175.97 124.14 177.79 125.1 177.79 183.03"></polygon>
        <polygon class="cls-1" points="155.84 147.49 155.75 158.81 111.65 172.71 64.75 146.43 64.57 136.08 110.68 161.53 155.84 147.49"></polygon>
        <path class="cls-1" d="M155.84,131.68l-.52,10.63-43.76,13.91-45.73-25.37c-2.43-2.38-.86-7.36-1.26-10.58,1.5-.27,2.57.42,3.85.97,11.28,4.86,23.64,14.51,35.05,20.24,7.13,3.58,6.46,3.89,14.42,1.83,4.86-1.25,36.53-13.04,37.95-11.64Z"></path>
        <path class="cls-1" d="M155.84,163.28l-.85,11.87-43.41,13.56-46.13-25.88-.88-10.08c1.25-.24,2.16.22,3.26.69,8.7,3.69,19.16,11.4,27.75,16.14,4.95,2.73,9.88,5.63,15.15,7.74l45.11-14.03Z"></path>
        <polygon class="cls-1" points="155.84 179.96 155.75 191.28 111.51 205.06 64.75 178.9 64.57 168.55 110.84 193.84 155.84 179.96"></polygon>
        <path class="cls-1" d="M198.85,112.37l-19.52,5.1c-11.14-7.79-24.46-13.87-35.51-21.56-.76-.53-1.63.15-1.15-1.95,5.02-.29,11.51-4.28,16.27-4.44,4.35-.15,12.75,3.92,18.42,4.42,3.13.27,7.34.2,10.5,0,6.54-.4,10.39-3.84,16.23,2.21-7.31,4.46-8.32,8.3-5.25,16.23Z"></path>
        <path class="cls-1" d="M119.86,100.98c4.52-.66,12.52-5.15,16.68-4.02l36.84,22.88c0,1.09-13.76,5.42-15.79,4.45l-37.73-23.31Z"></path>
        <path class="cls-1" d="M223.42,142.22l-.86,10.99-39.98,11.87c-.47-2.85-1.45-8.73.98-10.49l39.86-12.37Z"></path>
        <path class="cls-1" d="M223.42,109.74l-.86,10.99-40.38,12.71c.48-3.25-1.46-10,1.79-11.81l39.46-11.89Z"></path>
        <path class="cls-1" d="M223.42,125.55c-.5,3.19,1.35,9.35-1.39,11.33l-39.86,12.37.86-10.99,40.38-12.71Z"></path>
        <path class="cls-1" d="M182.18,181.72l.85-11,37.74-12.35,2.25.49c.46,2.85,1.45,8.73-.98,10.49l-39.86,12.37Z"></path>
        <path class="cls-1" d="M68.96,116.75c-.26-1.2.91-.94,1.75-1.29,2.43-1.01,13.5-4.75,15.46-4.84,5.37-.23,6.14,5.62,1.15,9.15-8.53,6.04-10.42-.09-18.36-3.02Z"></path>
        <path class="cls-1" d="M126.88,134.33c-.24,1.51-1.75,1.53-2.83,1.99-1.73.74-11.47,4.14-12.56,4.08-.73-.03-7.95-4.16-8.96-4.95-.72-.56-1.61.01-1.1-2.01,8.73-1.29,16.84-1.01,25.45.88Z"></path>
        <path class="cls-1" d="M202.63,102.98c5.27-6.11,11.42-1.89,16.39,1.94.02.84-12.17,4.98-13.57,4.84-2.71-.27-4.92-4.35-2.83-6.78Z"></path>
        <path class="cls-1" d="M190.07,86.94c.28,2.12,0,1.39-1.21,1.84-6.29,2.34-13.46-.72-19.85-.98-.35-2.26.22-1.36,1.24-1.83,3.15-1.45,7.5-1.7,10.76-3.21l9.06,4.18Z"></path>
      </g>
    </g>
  </g>
</svg><style>@media (prefers-color-scheme: light) { :root { filter: none; } }
@media (prefers-color-scheme: dark) { :root { filter: none; } }
</style></svg>